<svg width="137" height="46" viewBox="0 0 137 46" fill="none" xmlns="http://www.w3.org/2000/svg">
<g clip-path="url(#clip0)">
<path d="M126.09 2.67629e-05H10.916C10.4962 2.67629e-05 10.0814 2.6763e-05 9.66266 0.00231651C9.31216 0.00460625 8.96445 0.0112579 8.61058 0.0168564C7.84181 0.0259029 7.07486 0.0935355 6.31637 0.219167C5.55895 0.347532 4.82526 0.589539 4.14011 0.937001C3.45579 1.2874 2.83052 1.74271 2.28696 2.28641C1.74055 2.82859 1.28508 3.45527 0.938051 4.14235C0.590067 4.82807 0.348774 5.56288 0.222506 6.32141C0.0950369 7.07898 0.0264447 7.84528 0.0173448 8.61344C0.0067204 8.96446 0.00559842 9.31664 0 9.66771V36.1306C0.00559842 36.486 0.0067204 36.8304 0.0173448 37.186C0.0264475 37.9541 0.0950397 38.7204 0.222506 39.4779C0.348426 40.2369 0.589733 40.9721 0.938051 41.6581C1.28492 42.343 1.74046 42.9671 2.28696 43.5063C2.82846 44.0524 3.45414 44.508 4.14011 44.8557C4.82525 45.2041 5.55887 45.4476 6.31637 45.5779C7.07498 45.7025 7.84186 45.7702 8.61058 45.7803C8.96445 45.7881 9.31216 45.7926 9.66266 45.7926C10.0814 45.7949 10.4962 45.7949 10.916 45.7949H126.09C126.502 45.7949 126.92 45.7949 127.331 45.7926C127.68 45.7926 128.038 45.7881 128.387 45.7803C129.154 45.7707 129.919 45.7031 130.676 45.5779C131.436 45.4467 132.173 45.2033 132.861 44.8557C133.546 44.5078 134.172 44.0522 134.713 43.5063C135.258 42.965 135.714 42.3413 136.065 41.6581C136.411 40.9716 136.65 40.2365 136.774 39.4779C136.902 38.7203 136.973 37.9542 136.987 37.186C136.991 36.8304 136.991 36.486 136.991 36.1306C137 35.7146 137 35.301 137 34.8783V10.9177C137 10.4984 137 10.0825 136.991 9.66771C136.991 9.31664 136.991 8.96446 136.987 8.6134C136.973 7.84517 136.902 7.07903 136.774 6.32136C136.65 5.56328 136.411 4.82852 136.065 4.14231C135.359 2.76511 134.238 1.64409 132.861 0.936898C132.173 0.590285 131.436 0.348343 130.676 0.219063C129.919 0.092879 129.154 0.0252228 128.387 0.0166961C128.038 0.0111091 127.68 0.00440017 127.331 0.00216767C126.92 -0.00012207 126.502 -0.00012207 126.09 -0.00012207V2.67629e-05Z" fill="#A6A6A6"/>
<path d="M9.66827 44.7932C9.31945 44.7932 8.97906 44.7887 8.63298 44.7809C7.91604 44.7716 7.20077 44.7092 6.49305 44.5942C5.83314 44.4805 5.19386 44.2691 4.5963 43.9669C4.00422 43.6672 3.46419 43.2742 2.99691 42.803C2.52287 42.3374 2.1282 41.7973 1.82856 41.2042C1.52561 40.6073 1.31596 39.9674 1.20689 39.3069C1.08911 38.5973 1.02539 37.8796 1.01627 37.1603C1.00901 36.9189 0.999512 36.1149 0.999512 36.1149V9.66775C0.999512 9.66775 1.00963 8.87618 1.01633 8.64362C1.02506 7.92542 1.08841 7.20893 1.20584 6.50034C1.31511 5.83806 1.52492 5.19635 1.82803 4.59745C2.12657 4.00476 2.51905 3.46429 2.99024 2.99698C3.4609 2.52522 4.00265 2.13022 4.59574 1.82638C5.19192 1.52514 5.82999 1.31522 6.48857 1.20364C7.19862 1.08751 7.91637 1.02472 8.63579 1.01581L9.66883 1.00183H127.326L128.371 1.01637C129.084 1.02484 129.795 1.08707 130.499 1.20252C131.164 1.3155 131.809 1.52689 132.412 1.82973C133.6 2.44206 134.567 3.41083 135.176 4.60024C135.475 5.19501 135.681 5.83148 135.789 6.48804C135.908 7.20245 135.975 7.92457 135.988 8.64866C135.991 8.97289 135.991 9.32115 135.991 9.66775C136.001 10.0971 136.001 10.5057 136.001 10.9177V34.8784C136.001 35.2943 136.001 35.7001 135.991 36.1093C135.991 36.4816 135.991 36.8227 135.987 37.1737C135.974 37.8849 135.908 38.5941 135.791 39.2957C135.685 39.961 135.476 40.6058 135.173 41.2077C134.871 41.7943 134.479 42.3297 134.01 42.7941C133.543 43.2678 133.002 43.6631 132.408 43.9647C131.807 44.2693 131.163 44.4815 130.499 44.5942C129.791 44.7098 129.076 44.7722 128.359 44.7809C128.023 44.7887 127.672 44.7932 127.331 44.7932L126.09 44.7955L9.66827 44.7932Z" fill="black"/>
<path d="M28.3572 23.2417C28.3695 22.2861 28.6233 21.3492 29.095 20.518C29.5667 19.6869 30.241 18.9886 31.0551 18.4881C30.5379 17.7495 29.8557 17.1416 29.0625 16.7128C28.2693 16.284 27.387 16.046 26.4857 16.0178C24.5632 15.8161 22.6994 17.1682 21.7198 17.1682C20.7211 17.1682 19.2128 16.0379 17.5885 16.0713C16.5379 16.1052 15.514 16.4108 14.6165 16.9581C13.7191 17.5054 12.9787 18.2758 12.4676 19.1944C10.2534 23.0279 11.905 28.6618 14.026 31.7606C15.0872 33.2779 16.3274 34.9728 17.9502 34.9127C19.5382 34.8469 20.1313 33.9001 22.0481 33.9001C23.9472 33.9001 24.5036 34.9127 26.1594 34.8745C27.8634 34.8469 28.937 33.3504 29.9609 31.8187C30.7234 30.7375 31.3101 29.5426 31.6993 28.2782C30.7093 27.8595 29.8645 27.1586 29.2702 26.263C28.6758 25.3673 28.3583 24.3166 28.3572 23.2417V23.2417Z" fill="white"/>
<path d="M25.2298 13.9799C26.1589 12.8646 26.6167 11.431 26.5058 9.98364C25.0864 10.1327 23.7752 10.8111 22.8335 11.8837C22.3731 12.4076 22.0205 13.0172 21.7959 13.6775C21.5712 14.3379 21.4788 15.036 21.5241 15.732C22.2341 15.7393 22.9365 15.5855 23.5784 15.282C24.2203 14.9785 24.7849 14.5333 25.2298 13.9799Z" fill="white"/>
<path d="M48.4307 31.0714H43.0115L41.7101 34.9141H39.4148L44.5477 20.6971H46.9325L52.0654 34.9141H49.7309L48.4307 31.0714ZM43.5728 29.2982H47.8683L45.7508 23.0618H45.6915L43.5728 29.2982Z" fill="white"/>
<path d="M63.1508 29.7321C63.1508 32.9531 61.4268 35.0226 58.8251 35.0226C58.1661 35.0571 57.5106 34.9053 56.9339 34.5846C56.3571 34.2638 55.8823 33.7872 55.5638 33.2091H55.5146V38.3432H53.387V24.5488H55.4464V26.2729H55.4855C55.8187 25.6976 56.3015 25.2234 56.8826 24.9007C57.4638 24.578 58.1216 24.419 58.786 24.4404C61.4167 24.4404 63.1508 26.5199 63.1508 29.7321ZM60.9639 29.7321C60.9639 27.6335 59.8794 26.2539 58.2247 26.2539C56.5991 26.2539 55.5057 27.6626 55.5057 29.7321C55.5057 31.8206 56.5991 33.2192 58.2247 33.2192C59.8794 33.2192 60.9639 31.8496 60.9639 29.7321Z" fill="white"/>
<path d="M74.5592 29.7321C74.5592 32.9531 72.8352 35.0226 70.2335 35.0226C69.5744 35.0571 68.919 34.9053 68.3422 34.5845C67.7654 34.2638 67.2906 33.7872 66.9722 33.2091H66.9229V38.3432H64.7953V24.5488H66.8547V26.2728H66.8938C67.2269 25.6976 67.7098 25.2234 68.291 24.9007C68.8721 24.578 69.5299 24.419 70.1943 24.4404C72.8251 24.4404 74.5592 26.5199 74.5592 29.7321ZM72.3723 29.7321C72.3723 27.6335 71.2878 26.2538 69.6331 26.2538C68.0074 26.2538 66.914 27.6626 66.914 29.7321C66.914 31.8206 68.0074 33.2192 69.6331 33.2192C71.2878 33.2192 72.3723 31.8496 72.3723 29.7321H72.3723Z" fill="white"/>
<path d="M82.0992 30.9529C82.2569 32.3628 83.6265 33.2885 85.4981 33.2885C87.2914 33.2885 88.5817 32.3627 88.5817 31.0915C88.5817 29.988 87.8035 29.3273 85.961 28.8744L84.1184 28.4306C81.5078 27.8 80.2958 26.5791 80.2958 24.5979C80.2958 22.145 82.4336 20.4601 85.469 20.4601C88.4732 20.4601 90.5326 22.145 90.602 24.5979H88.4542C88.3256 23.1791 87.1528 22.3227 85.4388 22.3227C83.7249 22.3227 82.552 23.1892 82.552 24.4504C82.552 25.4555 83.3011 26.0469 85.1336 26.4997L86.7 26.8843C89.6169 27.5741 90.8289 28.7459 90.8289 30.8254C90.8289 33.4852 88.7102 35.1511 85.3404 35.1511C82.1875 35.1511 80.0588 33.5243 79.9213 30.9528L82.0992 30.9529Z" fill="white"/>
<path d="M95.4208 22.0958V24.5488H97.3919V26.2337H95.4208V31.948C95.4208 32.8357 95.8155 33.2494 96.6819 33.2494C96.9159 33.2453 97.1496 33.2289 97.3818 33.2002V34.875C96.9923 34.9478 96.5963 34.9807 96.2001 34.9734C94.1015 34.9734 93.2831 34.1851 93.2831 32.1749V26.2337H91.776V24.5488H93.2831V22.0958H95.4208Z" fill="white"/>
<path d="M98.5333 29.7321C98.5333 26.4708 100.454 24.4214 103.449 24.4214C106.455 24.4214 108.366 26.4707 108.366 29.7321C108.366 33.0023 106.465 35.0428 103.449 35.0428C100.435 35.0428 98.5333 33.0023 98.5333 29.7321ZM106.199 29.7321C106.199 27.4949 105.173 26.1745 103.449 26.1745C101.725 26.1745 100.701 27.5049 100.701 29.7321C100.701 31.9782 101.725 33.2886 103.449 33.2886C105.173 33.2886 106.199 31.9782 106.199 29.7321H106.199Z" fill="white"/>
<path d="M110.121 24.5487H112.15V26.313H112.199C112.336 25.762 112.659 25.275 113.113 24.934C113.567 24.5929 114.125 24.4186 114.692 24.4403C114.938 24.4394 115.182 24.4661 115.421 24.5197V26.5098C115.112 26.4152 114.789 26.3718 114.465 26.3812C114.156 26.3687 113.848 26.4232 113.562 26.541C113.276 26.6587 113.019 26.837 112.808 27.0636C112.598 27.2902 112.439 27.5596 112.342 27.8535C112.245 28.1473 112.213 28.4586 112.248 28.766V34.9141H110.121L110.121 24.5487Z" fill="white"/>
<path d="M125.231 31.8698C124.945 33.7514 123.112 35.0427 120.768 35.0427C117.752 35.0427 115.881 33.0224 115.881 29.7813C115.881 26.53 117.763 24.4214 120.678 24.4214C123.546 24.4214 125.35 26.3914 125.35 29.5342V30.2631H118.029V30.3917C117.995 30.7732 118.043 31.1575 118.169 31.5191C118.295 31.8807 118.497 32.2113 118.76 32.489C119.024 32.7667 119.344 32.9851 119.698 33.1297C120.053 33.2743 120.434 33.3418 120.817 33.3277C121.32 33.3748 121.824 33.2583 122.256 32.9957C122.687 32.733 123.022 32.3381 123.211 31.8697L125.231 31.8698ZM118.039 28.7761H123.221C123.24 28.4331 123.188 28.0899 123.068 27.768C122.948 27.446 122.763 27.1523 122.524 26.9053C122.286 26.6583 121.998 26.4632 121.681 26.3325C121.363 26.2017 121.022 26.138 120.678 26.1454C120.332 26.1433 119.988 26.2099 119.668 26.3413C119.347 26.4726 119.056 26.6662 118.81 26.9108C118.565 27.1554 118.37 27.4461 118.238 27.7663C118.106 28.0865 118.038 28.4297 118.039 28.7762V28.7761Z" fill="white"/>
<path d="M43.3061 9.99591C43.7522 9.9639 44.1998 10.0313 44.6167 10.1932C45.0335 10.3551 45.4092 10.6076 45.7167 10.9323C46.0242 11.257 46.2558 11.6459 46.3948 12.071C46.5338 12.496 46.5767 12.9466 46.5205 13.3903C46.5205 15.5727 45.341 16.8272 43.3061 16.8272H40.8386V9.99591H43.3061ZM41.8996 15.8611H43.1876C43.5064 15.8801 43.8253 15.8279 44.1213 15.7081C44.4173 15.5883 44.6829 15.4041 44.8987 15.1687C45.1145 14.9334 45.2751 14.6529 45.3688 14.3476C45.4625 14.0424 45.487 13.7201 45.4405 13.4042C45.4836 13.0895 45.4567 12.7692 45.3615 12.4662C45.2664 12.1632 45.1053 11.885 44.89 11.6515C44.6747 11.4181 44.4104 11.2351 44.1161 11.1158C43.8218 10.9964 43.5047 10.9437 43.1876 10.9613H41.8996V15.8611Z" fill="white"/>
<path d="M47.719 14.2472C47.6866 13.9084 47.7254 13.5666 47.8328 13.2437C47.9402 12.9208 48.114 12.6238 48.3429 12.372C48.5718 12.1201 48.8508 11.9189 49.1621 11.7812C49.4733 11.6435 49.8099 11.5724 50.1502 11.5724C50.4905 11.5724 50.8271 11.6435 51.1384 11.7812C51.4496 11.9189 51.7286 12.1201 51.9575 12.372C52.1864 12.6238 52.3602 12.9208 52.4676 13.2437C52.5751 13.5666 52.6138 13.9084 52.5814 14.2472C52.6144 14.5864 52.5761 14.9287 52.469 15.2521C52.3618 15.5756 52.1882 15.873 51.9592 16.1254C51.7302 16.3777 51.451 16.5794 51.1395 16.7174C50.8279 16.8554 50.491 16.9267 50.1502 16.9267C49.8095 16.9267 49.4725 16.8554 49.1609 16.7174C48.8494 16.5794 48.5702 16.3777 48.3412 16.1254C48.1122 15.873 47.9386 15.5756 47.8314 15.2521C47.7243 14.9287 47.686 14.5864 47.719 14.2472V14.2472ZM51.5349 14.2472C51.5349 13.1298 51.0329 12.4763 50.1519 12.4763C49.2675 12.4763 48.77 13.1298 48.77 14.2472C48.77 15.3737 49.2675 16.0221 50.1519 16.0221C51.0329 16.0221 51.5349 15.3692 51.5349 14.2472H51.5349Z" fill="white"/>
<path d="M59.0447 16.827H57.9893L56.9238 13.0302H56.8433L55.7823 16.827H54.7369L53.3159 11.6718H54.3479L55.2714 15.6055H55.3474L56.4073 11.6718H57.3833L58.4432 15.6055H58.5237L59.4427 11.6718H60.4601L59.0447 16.827Z" fill="white"/>
<path d="M61.6554 11.6717H62.6348V12.4907H62.7108C62.8398 12.1965 63.0573 11.95 63.3331 11.7853C63.6089 11.6207 63.9291 11.5462 64.2492 11.5722C64.5001 11.5534 64.7519 11.5912 64.9862 11.6829C65.2204 11.7746 65.431 11.9178 65.6024 12.1019C65.7738 12.2861 65.9015 12.5064 65.9761 12.7467C66.0508 12.9869 66.0704 13.2408 66.0336 13.4896V16.8269H65.0162V13.7451C65.0162 12.9167 64.6562 12.5047 63.9038 12.5047C63.7335 12.4967 63.5634 12.5257 63.4054 12.5896C63.2473 12.6536 63.105 12.7509 62.988 12.875C62.8711 12.9991 62.7824 13.147 62.728 13.3085C62.6736 13.4701 62.6548 13.6416 62.6728 13.8111V16.827H61.6554L61.6554 11.6717Z" fill="white"/>
<path d="M67.6548 9.6593H68.6722V16.827H67.6548V9.6593Z" fill="white"/>
<path d="M70.0865 14.2472C70.0542 13.9084 70.0929 13.5666 70.2004 13.2436C70.3079 12.9207 70.4816 12.6237 70.7106 12.3719C70.9395 12.12 71.2185 11.9188 71.5298 11.7811C71.8411 11.6434 72.1777 11.5723 72.518 11.5723C72.8584 11.5723 73.195 11.6434 73.5062 11.7811C73.8175 11.9188 74.0965 12.12 74.3255 12.3719C74.5544 12.6237 74.7282 12.9207 74.8356 13.2436C74.9431 13.5666 74.9819 13.9084 74.9495 14.2472C74.9825 14.5864 74.9441 14.9287 74.8369 15.2521C74.7298 15.5756 74.5561 15.873 74.3271 16.1254C74.0981 16.3777 73.8189 16.5793 73.5073 16.7173C73.1957 16.8553 72.8588 16.9266 72.518 16.9266C72.1773 16.9266 71.8403 16.8553 71.5287 16.7173C71.2172 16.5793 70.9379 16.3777 70.7089 16.1254C70.4799 15.873 70.3063 15.5756 70.1991 15.2521C70.0919 14.9287 70.0536 14.5864 70.0865 14.2472V14.2472ZM73.9024 14.2472C73.9024 13.1297 73.4004 12.4762 72.5194 12.4762C71.635 12.4762 71.1375 13.1297 71.1375 14.2472C71.1375 15.3737 71.6351 16.0221 72.5194 16.0221C73.4004 16.0221 73.9024 15.3692 73.9024 14.2472H73.9024Z" fill="white"/>
<path d="M76.0205 15.3691C76.0205 14.4411 76.7115 13.9062 77.9379 13.8301L79.3344 13.7496V13.3047C79.3344 12.7602 78.9744 12.4527 78.2789 12.4527C77.711 12.4527 77.3174 12.6612 77.2045 13.0257H76.2195C76.3235 12.1402 77.1564 11.5723 78.3259 11.5723C79.6184 11.5723 80.3473 12.2157 80.3473 13.3047V16.827H79.3679V16.1026H79.2874C79.124 16.3624 78.8946 16.5743 78.6225 16.7165C78.3505 16.8587 78.0456 16.9262 77.7389 16.912C77.5225 16.9345 77.3038 16.9114 77.0968 16.8442C76.8899 16.777 76.6993 16.6672 76.5374 16.5218C76.3755 16.3764 76.2459 16.1988 76.1568 16.0002C76.0678 15.8017 76.0214 15.5867 76.0205 15.3691V15.3691ZM79.3344 14.9286V14.4976L78.0755 14.5781C77.3655 14.6256 77.0435 14.8671 77.0435 15.3216C77.0435 15.7856 77.446 16.0556 77.9995 16.0556C78.1616 16.072 78.3254 16.0556 78.4811 16.0074C78.6369 15.9592 78.7813 15.8802 78.9058 15.7751C79.0304 15.6699 79.1325 15.5408 79.2061 15.3954C79.2797 15.25 79.3234 15.0912 79.3344 14.9286V14.9286Z" fill="white"/>
<path d="M81.6846 14.2472C81.6846 12.6182 82.522 11.5863 83.8245 11.5863C84.1467 11.5714 84.4664 11.6486 84.7464 11.8087C85.0263 11.9689 85.2549 12.2054 85.4054 12.4907H85.4814V9.6593H86.4988V16.827H85.5239V16.0125H85.4434C85.2813 16.2959 85.0447 16.5295 84.7594 16.688C84.474 16.8466 84.1507 16.924 83.8245 16.912C82.513 16.9121 81.6846 15.8801 81.6846 14.2472ZM82.7356 14.2472C82.7356 15.3406 83.251 15.9986 84.113 15.9986C84.9705 15.9986 85.5004 15.3311 85.5004 14.2517C85.5004 13.1772 84.9649 12.5003 84.113 12.5003C83.2565 12.5003 82.7355 13.1627 82.7355 14.2472H82.7356Z" fill="white"/>
<path d="M90.7082 14.2472C90.6757 13.9084 90.7145 13.5666 90.8219 13.2437C90.9294 12.9208 91.1031 12.6238 91.332 12.372C91.5609 12.1201 91.8399 11.9189 92.1512 11.7812C92.4624 11.6435 92.799 11.5724 93.1393 11.5724C93.4797 11.5724 93.8162 11.6435 94.1275 11.7812C94.4387 11.9189 94.7177 12.1201 94.9466 12.372C95.1755 12.6238 95.3493 12.9208 95.4567 13.2437C95.5641 13.5666 95.6029 13.9084 95.5705 14.2472C95.6035 14.5864 95.5652 14.9287 95.4581 15.2521C95.3509 15.5756 95.1773 15.873 94.9483 16.1254C94.7194 16.3777 94.4401 16.5794 94.1286 16.7174C93.817 16.8554 93.4801 16.9267 93.1393 16.9267C92.7986 16.9267 92.4616 16.8554 92.1501 16.7174C91.8385 16.5794 91.5593 16.3777 91.3303 16.1254C91.1014 15.873 90.9277 15.5756 90.8206 15.2521C90.7134 14.9287 90.6751 14.5864 90.7082 14.2472V14.2472ZM94.524 14.2472C94.524 13.1298 94.022 12.4763 93.141 12.4763C92.2566 12.4763 91.7591 13.1298 91.7591 14.2472C91.7591 15.3737 92.2567 16.0221 93.141 16.0221C94.022 16.0221 94.524 15.3692 94.524 14.2472Z" fill="white"/>
<path d="M96.9357 11.6717H97.9151V12.4907H97.9911C98.1201 12.1965 98.3376 11.95 98.6133 11.7853C98.8891 11.6207 99.2094 11.5462 99.5295 11.5722C99.7803 11.5534 100.032 11.5912 100.266 11.6829C100.501 11.7746 100.711 11.9178 100.883 12.1019C101.054 12.2861 101.182 12.5064 101.256 12.7467C101.331 12.9869 101.351 13.2408 101.314 13.4896V16.8269H100.296V13.7451C100.296 12.9167 99.9365 12.5047 99.184 12.5047C99.0137 12.4967 98.8437 12.5257 98.6856 12.5896C98.5276 12.6536 98.3852 12.7509 98.2683 12.875C98.1514 12.9991 98.0627 13.147 98.0083 13.3085C97.9539 13.4701 97.935 13.6416 97.9531 13.8111V16.827H96.9357V11.6717Z" fill="white"/>
<path d="M107.063 10.3883V11.6953H108.18V12.5523H107.063V15.2031C107.063 15.7432 107.285 15.9796 107.792 15.9796C107.921 15.9792 108.051 15.9714 108.18 15.9561V16.8036C107.997 16.8363 107.812 16.8537 107.626 16.8556C106.495 16.8556 106.044 16.4576 106.044 15.4636V12.5522H105.226V11.6952H106.044V10.3883H107.063Z" fill="white"/>
<path d="M109.569 9.6593H110.578V12.5002H110.658C110.794 12.2034 111.017 11.9554 111.298 11.7901C111.58 11.6249 111.905 11.5504 112.23 11.5767C112.48 11.5632 112.729 11.6048 112.961 11.6988C113.193 11.7927 113.401 11.9366 113.57 12.1201C113.74 12.3037 113.867 12.5224 113.942 12.7607C114.017 12.999 114.039 13.251 114.006 13.4986V16.8271H112.987V13.7496C112.987 12.9262 112.604 12.5092 111.885 12.5092C111.71 12.4948 111.534 12.5189 111.37 12.5796C111.205 12.6403 111.056 12.7363 110.932 12.8608C110.808 12.9853 110.713 13.1353 110.654 13.3003C110.594 13.4653 110.571 13.6414 110.587 13.8162V16.827H109.57L109.569 9.6593Z" fill="white"/>
<path d="M119.938 15.435C119.8 15.9062 119.5 16.3138 119.092 16.5864C118.684 16.8591 118.192 16.9794 117.704 16.9265C117.365 16.9355 117.027 16.8704 116.715 16.7359C116.403 16.6013 116.124 16.4005 115.898 16.1473C115.671 15.8941 115.502 15.5947 115.403 15.2697C115.304 14.9448 115.276 14.6022 115.323 14.2656C115.278 13.928 115.305 13.5846 115.405 13.2587C115.504 12.9328 115.671 12.6319 115.897 12.3765C116.122 12.1212 116.4 11.9172 116.711 11.7784C117.022 11.6396 117.359 11.5693 117.7 11.5722C119.134 11.5722 120 12.5522 120 14.1711V14.5261H116.359V14.5831C116.343 14.7723 116.367 14.9627 116.429 15.1422C116.491 15.3216 116.59 15.4862 116.719 15.6252C116.848 15.7643 117.005 15.8748 117.18 15.9496C117.354 16.0245 117.542 16.0621 117.732 16.06C117.976 16.0892 118.222 16.0454 118.441 15.9341C118.659 15.8228 118.839 15.6491 118.959 15.435L119.938 15.435ZM116.359 13.7736H118.963C118.976 13.6006 118.953 13.4268 118.894 13.2634C118.836 13.1 118.744 12.9507 118.624 12.8249C118.505 12.6991 118.36 12.5997 118.2 12.5331C118.04 12.4665 117.868 12.4342 117.694 12.4382C117.518 12.4359 117.344 12.469 117.181 12.5353C117.018 12.6017 116.87 12.7 116.745 12.8244C116.621 12.9489 116.523 13.097 116.456 13.26C116.39 13.423 116.357 13.5977 116.359 13.7736H116.359Z" fill="white"/>
</g>
<defs>
<clipPath id="clip0">
<rect width="137" height="45.7949" fill="white"/>
</clipPath>
</defs>
</svg>
